HIERARCHY
ROOT pelvis
{
  OFFSET 0 100 0
  CHANNELS 6 Xposition Yposition Zposition Zrotation Xrotation Yrotation
  JOINT pelvis_right_femur
  {
    OFFSET -10.78128 -3.44521 -0.5502486
    CHANNELS 3 Zrotation Xrotation Yrotation
    JOINT right_femur_tibia
    {
      OFFSET -0.8047443 -44.0398 -0.1307829
      CHANNELS 3 Zrotation Xrotation Yrotation
      JOINT right_tibia_foot
      {
        OFFSET 3.006224 -47.83518 -5
        CHANNELS 3 Zrotation Xrotation Yrotation
        End Site
        {
          OFFSET 0 -5 15
        }
      }
    }
  }
  JOINT pelvis_left_femur
  {
    OFFSET 10.78128 -3.44521 -0.5502486
    CHANNELS 3 Zrotation Xrotation Yrotation
    JOINT left_femur_tibia
    {
      OFFSET 0.8047443 -44.0398 -0.1307829
      CHANNELS 3 Zrotation Xrotation Yrotation
      JOINT left_tibia_foot
      {
        OFFSET -4.370144 -48.10324 -4.275266
        CHANNELS 3 Zrotation Xrotation Yrotation
        End Site
        {
          OFFSET 0 -5 15
        }
      }
    }
  }
  JOINT pelvis_spine1
  {
    OFFSET 0 6.468898 -3.129235
    CHANNELS 3 Zrotation Xrotation Yrotation
    JOINT spine1
    {
      OFFSET 0 23.15396 4.99043
      CHANNELS 3 Zrotation Xrotation Yrotation
      JOINT spine2
      {
        OFFSET 0 20.79997 -5.064912
        CHANNELS 3 Zrotation Xrotation Yrotation
        JOINT neck
        {
          OFFSET 0 14.38658 9.616178
          CHANNELS 3 Zrotation Xrotation Yrotation
          End Site
          {
            OFFSET 0 20 0
          }
        }
      }
      JOINT right_manubrium
      {
        OFFSET -5.722621 16.35077 3.967754
        CHANNELS 3 Zrotation Xrotation Yrotation
        JOINT right_clavicle
        {
          OFFSET -13.16364 1.694482 -4.693211
          CHANNELS 3 Zrotation Xrotation Yrotation
          JOINT right_humerus
          {
            OFFSET -28.5034 -0.3100689 -2.792744
            CHANNELS 3 Zrotation Xrotation Yrotation
            JOINT right_radius
            {
              OFFSET -25.15693 0.02248979 -1.271978
              CHANNELS 3 Zrotation Xrotation Yrotation
              End Site
              {
                OFFSET -15 0 0
              }
            }
          }
        }
      }
      JOINT left_manubrium
      {
        OFFSET 5.722621 16.35077 3.967754
        CHANNELS 3 Zrotation Xrotation Yrotation
        JOINT left_clavicle
        {
          OFFSET 13.16364 1.694482 -4.693211
          CHANNELS 3 Zrotation Xrotation Yrotation
          JOINT left_humerus
          {
            OFFSET 29.39168 -1.063119 -2.237045
            CHANNELS 3 Zrotation Xrotation Yrotation
            JOINT left_radius
            {
              OFFSET 24.59957 -0.9528479 0.9047498
              CHANNELS 3 Zrotation Xrotation Yrotation
              End Site
              {
                OFFSET 15 -0 -0
              }
            }
          }
        }
      }
    }
  }
}
MOTION
Frames: 11
Frame Time: 0.0416666666667
-103.4259 96.37297 3018.921 -2.218699 -4.323538 -21.35916 3.232984 18.51783 1.660032 -0 15.29079 -0 -7.058545 -13.5272 0.6458669 2.079509 -23.36878 -3.863493 -0 10.23147 -0 -0.7577795 -3.028233 17.99519 -0.8139242 -2.683562 8.678991 -0.8876714 14.32567 -4.65493 -1.304252 20.17975 6.745254 7.6851 -13.07458 1.028176 4.17937 -26.26617 12.72634 82.84556 25.42147 -10.3909 -0 0 26.26592 -21.6507 9.160903 10.05502 4.759572 -26.86387 -10.53037 -95.9807 6.203968 35.65477 0 0 -1.759286 11.38043 11.14858 1.2151
-104.7521 95.88142 3025.913 -1.434886 -4.766208 -21.78321 1.034395 20.77619 1.413764 -0 20.12532 -0 -7.548606 -8.960859 1.487987 -0.4454114 -22.15817 -6.444156 -0 12.36618 -0 -1.500421 -4.065382 18.63768 -0.9975917 -2.828223 8.582113 -1.117302 14.38009 -4.486964 -1.367152 20.16265 7.050294 8.152942 -12.64789 0.8917333 4.85213 -25.9001 12.69728 82.33957 25.69537 -10.35561 -0 0 26.22569 -21.91872 9.188835 10.30557 5.073912 -27.2159 -10.80393 -96.00993 6.202329 35.28815 0 0 -1.898721 11.3505 11.12623 1.569389
-106.1915 96.03206 3033.178 -0.6360565 -5.611233 -21.8971 -1.055602 21.92651 1.361931 -0 27.43625 -0 -8.395282 -1.963581 2.298787 -2.979735 -19.93156 -8.956734 -0 15.58334 -0 -1.806682 -5.522358 19.45557 -1.231728 -2.980247 8.377792 -1.315754 14.51421 -4.457589 -1.4341 20.15955 7.342045 8.656907 -12.3255 0.7073294 5.538222 -25.35865 12.65065 82.07426 25.96555 -10.78218 -0 0 25.87171 -22.17112 9.168823 10.33572 5.520513 -27.74633 -11.15594 -95.79341 6.293915 34.34026 0 0 -2.677735 11.42133 11.07899 1.648285
-107.7051 96.90111 3040.413 -0.2105104 -6.605558 -21.60929 -2.337717 20.68115 1.440954 -0 37.13216 -0 -9.467087 5.937291 2.888522 -4.829164 -16.36326 -10.72477 -0 18.37749 -0 -1.429119 -6.927673 20.17749 -1.463742 -3.144491 8.143594 -1.411404 14.73382 -4.643151 -1.527752 20.11066 7.542571 9.121201 -12.14538 0.4209447 6.10969 -24.76956 12.59024 82.14607 26.14888 -11.75338 -0 0 25.31605 -22.28788 9.126431 10.03476 6.051264 -28.51226 -11.55053 -95.33705 6.399271 32.98641 0 0 -4.245986 11.56603 10.92011 1.502893
-109.1944 98.37862 3047.273 -0.3911549 -7.513064 -20.96513 -2.47502 16.50289 1.447307 -0 47.32269 -0 -10.59813 12.49749 3.059895 -5.689679 -11.64763 -11.56331 -0 19.74257 -0 -0.5813124 -8.086994 20.59331 -1.649209 -3.313812 7.935165 -1.357118 15.01809 -5.079406 -1.657042 19.98408 7.59367 9.473723 -12.14216 0.01562214 6.440589 -24.22757 12.51278 82.61444 26.19026 -13.26435 -0 0 24.64732 -22.20516 9.07936 9.352794 6.636364 -29.51458 -11.92823 -94.64706 6.45436 31.34765 0 0 -6.677112 11.77849 10.60121 1.137297
-110.5543 100.1343 3053.501 -1.076537 -8.184298 -20.11946 -1.725828 10.02984 1.18199 -0 54.8078 -0 -11.62381 15.95827 2.742972 -5.734147 -6.467941 -11.78257 -0 19.31679 -0 0.2052452 -9.260193 20.61055 -1.761597 -3.467236 7.769112 -1.151088 15.3152 -5.736805 -1.806823 19.79315 7.473134 9.660548 -12.32885 -0.4703763 6.449499 -23.76176 12.40316 83.46285 26.09325 -15.18887 -0 0 23.909 -21.93023 9.044675 8.323655 7.270271 -30.67171 -12.20995 -93.74356 6.441372 29.46709 0 0 -9.898936 12.06951 10.15657 0.5156278
-111.7493 101.7278 3059.045 -1.884878 -8.515519 -19.2342 -0.6916376 2.577841 0.5107026 -0 56.93344 -0 -12.36666 16.02873 2.060065 -5.366624 -1.554503 -11.7684 -0 17.37566 -0 0.481667 -10.8624 20.19242 -1.800918 -3.575938 7.617037 -0.8472155 15.55677 -6.513031 -1.938641 19.59254 7.210154 9.667298 -12.67781 -0.9463229 6.144922 -23.3291 12.24374 84.57666 25.92944 -17.28022 -0 0 23.10164 -21.54556 9.048115 7.083886 7.959713 -31.82304 -12.32274 -92.6682 6.38436 27.32779 0 0 -13.65154 12.45822 9.702988 -0.4095295
-112.8347 102.7891 3064.049 -2.418434 -8.424887 -18.4066 0.1169787 -4.66568 -0.587465 -0 53.12817 -0 -12.62738 13.72596 1.232024 -4.961894 2.689126 -11.69383 -0 14.6231 -0 0.1533461 -13.04503 19.33459 -1.795306 -3.613982 7.417656 -0.5431288 15.68534 -7.254845 -2.005641 19.45277 6.887877 9.53478 -13.11752 -1.297499 5.638755 -22.84213 12.03325 85.76159 25.81447 -19.22272 -0 0 22.20489 -21.19547 9.121853 5.865542 8.699564 -32.77193 -12.23682 -91.48026 6.311783 24.90281 0 0 -17.51947 12.96467 9.38203 -1.663729
-113.9065 103.1328 3068.766 -2.483675 -7.892968 -17.67475 0.4992407 -11.03535 -1.969253 -0 44.83594 -0 -12.26946 10.49241 0.4565288 -4.744421 6.206496 -11.55024 -0 11.86556 -0 -0.5418061 -15.57621 18.1279 -1.787728 -3.567475 7.108036 -0.3429153 15.67421 -7.807701 -1.973011 19.42867 6.617539 9.347062 -13.55264 -1.427514 5.105489 -22.2181 11.79488 86.80181 25.861 -20.72222 -0 0 21.2042 -21.03721 9.292144 4.93366 9.454256 -33.35251 -11.98223 -90.25074 6.227794 22.21443 0 0 -21.04375 13.5984 9.288349 -3.217245
-115.0437 102.7627 3073.451 -2.119074 -6.994181 -17.04997 0.5327076 -16.32745 -3.373107 -0 34.38782 -0 -11.32537 7.498981 -0.1478966 -4.776676 9.113197 -11.27727 -0 9.781177 -0 -1.226822 -18.01873 16.7791 -1.812749 -3.437763 6.659436 -0.3109517 15.52777 -8.072515 -1.831976 19.54027 6.490108 9.189669 -13.90029 -1.293402 4.703864 -21.42467 11.56354 87.53236 26.13019 -21.59629 -0 0 20.10894 -21.16847 9.563207 4.482187 10.16014 -33.48557 -11.62753 -89.06029 6.123263 19.37359 0 0 -23.8564 14.34128 9.437184 -4.964378
-116.2912 101.8152 3078.299 -1.499067 -5.877338 -16.52904 0.437364 -20.57827 -4.524882 -0 23.95587 -0 -9.993895 5.413564 -0.5581115 -5.006478 11.54811 -10.83357 -0 8.859813 -0 -1.590263 -19.95215 15.52665 -1.879317 -3.239125 6.096097 -0.4445831 15.27109 -8.039603 -1.601371 19.77261 6.535105 9.105532 -14.12333 -0.9177345 4.508391 -20.50082 11.36629 87.89245 26.60333 -21.82287 -0 0 18.95783 -21.57801 9.905387 4.550798 10.7463 -33.19606 -11.24043 -87.99282 6.008542 16.57757 0 0 -25.76548 15.13681 9.78035 -6.736102
